<svg id="Capa_1" enable-background="new 0 0 520 520" height="512" viewBox="0 0 520 520" width="512" xmlns="http://www.w3.org/2000/svg"><g><path d="m430 45h-219.002c-5.429 0-10.434 2.933-13.086 7.669-2.653 4.735-2.541 10.535.294 15.165l48.992 80c2.727 4.452 7.571 7.166 12.792 7.166h200.01c8.284 0 15-6.716 15-15v-50c0-24.813-20.187-45-45-45z" fill="#ffb300"/><path d="m475 125.016h-206.597l-56.861-92.85c-2.727-4.452-7.571-7.166-12.792-7.166h-153.75c-24.813 0-45 20.187-45 45v380c0 24.813 20.187 45 45 45h430c24.813 0 45-20.187 45-45v-279.984c0-24.814-20.187-45-45-45z" fill="#fdd835"/><path d="m328.32 277.237-60-40c-5.039-3.359-11.602-3.359-16.641 0l-60 40c-4.173 2.781-6.68 7.465-6.68 12.48v40c0 8.284 6.716 15 15 15h15v75c0 8.284 6.716 15 15 15h60c8.284 0 15-6.716 15-15v-75h15c8.284 0 15-6.716 15-15v-40c.001-5.015-2.506-9.698-6.679-12.48z" fill="#64b5f6"/><path d="m430 45h-170v110h200c8.284 0 15-6.716 15-15v-50c0-24.813-20.187-45-45-45z" fill="#ff8f00"/><path d="m475 125.016h-206.597l-8.403-13.722v383.706h215c24.813 0 45-20.187 45-45v-279.984c0-24.814-20.187-45-45-45z" fill="#fbc02d"/><path d="m328.32 277.237-60-40c-2.52-1.68-5.42-2.52-8.32-2.52v200h30c8.284 0 15-6.716 15-15v-75h15c8.284 0 15-6.716 15-15v-40c0-5.015-2.507-9.698-6.68-12.48z" fill="#1e88e5"/></g></svg>