<svg id="Layer_1" enable-background="new 0 0 512 512" height="512" viewBox="0 0 512 512" width="512" xmlns="http://www.w3.org/2000/svg"><g><path d="m319.83 71.151v-71.15h-127.705v71.15h-53.919l117.796 184.986 117.74-184.986z" fill="#ffd321"/><path d="m319.83 71.151v-71.15h-63.828v256.136l117.74-184.986z" fill="#ffb454"/><g><path d="m406.345 94.633h29.999v138.253h-29.999z" fill="#4d628c" transform="matrix(.932 -.362 .362 .932 -30.704 163.477)"/></g><g><path d="m406.345 94.633h29.999v138.253h-29.999z" fill="#283d66" transform="matrix(.932 -.362 .362 .932 -30.704 163.477)"/></g><g><path d="m21.551 148.76h138.253v29.999h-138.253z" fill="#4d628c" transform="matrix(.362 -.932 .932 .362 -94.792 189.073)"/></g><path d="m28.967 273.21 35.901 238.789h382.263l35.901-238.789z" fill="#bee75e"/><path d="m483.032 273.21h-227.03v238.789h191.129z" fill="#00cb75"/><path d="m0 213.206h512v90.004h-512z" fill="#00cb75"/><path d="m256.002 213.206h255.998v90.004h-255.998z" fill="#00a78e"/><g><path d="m331.017 350.694h30v103.822h-30z" fill="#00cb75"/></g><g><path d="m271.013 350.694h30v103.822h-30z" fill="#00cb75"/></g><g><path d="m211.009 350.694h30v103.822h-30z" fill="#00cb75"/></g><g><path d="m151.005 350.694h30v103.822h-30z" fill="#00cb75"/></g><g><path d="m331.017 350.694h30v103.822h-30z" fill="#00a78e"/></g><g><path d="m271.013 350.694h30v103.822h-30z" fill="#00a78e"/></g></g></svg>